<?xml version="1.0" encoding="utf-8"?>
<!-- Generator: Adobe Illustrator 23.0.3, SVG Export Plug-In . SVG Version: 6.00 Build 0)  -->
<svg version="1.1" id="Layer_1" xmlns="http://www.w3.org/2000/svg" xmlns:xlink="http://www.w3.org/1999/xlink" x="0px" y="0px"
	 viewBox="0 0 650 650" style="enable-background:new 0 0 650 650;" xml:space="preserve">
<style type="text/css">
	.st0{fill:none;}
	.st1{stroke:#000000;stroke-miterlimit:10;}
	.st2{fill:none;stroke:#000000;stroke-miterlimit:10;}
	.st3{fill:#F70606;stroke:#000000;stroke-miterlimit:10;}
	.st4{fill:#F7CE26;stroke:#000000;stroke-miterlimit:10;}
</style>
<line class="st0" x1="19" y1="94.74" x2="160.14" y2="614.11"/>
<path class="st1" d="M149,621.94L6.07,103.06L36.6,90.52c0,0,25.11,63.15,31.32,86.9c38.44,147.23,76.89,294.45,115.33,441.68
	C171.83,620.05,160.42,621,149,621.94z"/>
<path class="st2" d="M203.82,127.41"/>
<path class="st3" d="M132.61,427.65c6.47-5.6,15.43-12.63,26.88-19.6c6.1-3.71,26.14-15.46,53.77-22.87
	c37.87-10.15,69.46-6.64,97.45-3.27c38.31,4.62,67.15,14.01,84.01,19.6c48.4,16.04,59.08,28.03,97.45,32.66
	c21.56,2.6,38.34,1.25,53.77,0c43.87-3.55,65.81-5.32,77.29-19.6c10.73-13.34,7.15-38.29,0-88.19c-2.35-16.43-3.53-24.65-6.72-35.93
	c-9.47-33.51-20.14-37.92-30.24-68.6c-8.07-24.48-9.34-46.14-10.08-58.8c-2.25-38.26,5.41-49.46-3.36-58.8
	c-13.25-14.12-41.56-0.06-77.29,3.27c-51.18,4.77-57.06-18.11-141.14-39.2c-90.71-22.75-163.29-16.06-188.18-13.07
	c-28.29,3.4-51.39,8.78-67.21,13.07L41.3,105.56"/>
<path class="st4" d="M63.08,186.5l38.68,142.08c26.36-18.34,68.54-41.49,122.47-44.4c34.53-1.86,64.92,6.65,125.69,23.68
	c64.96,18.2,92.57,32.46,151.48,38.48c61.46,6.28,71.52-5.15,74.13-8.88c9.04-12.95-3.62-30.65-22.56-76.96
	c-12.65-30.94-20.84-56.89-25.78-74h-90.24l-116.15-35.52l-86.9-11.84l-90.24,14.8L63.08,186.5z"/>
</svg>
